<svg width="24" height="24" viewBox="0 0 24 24" fill="none" xmlns="http://www.w3.org/2000/svg">
<g id="Chat_alt_add_fill">
<path id="Subtract" fill-rule="evenodd" clip-rule="evenodd" d="M19.594 7.29236C20 8.27247 20 9.51498 20 12C20 14.485 20 15.7275 19.594 16.7076C19.0527 18.0145 18.0145 19.0527 16.7076 19.594C15.7275 20 14.485 20 12 20H9.33333C6.81918 20 5.5621 20 4.78105 19.219C4 18.4379 4 17.1808 4 14.6667V12C4 9.51498 4 8.27247 4.40598 7.29236C4.94728 5.98554 5.98554 4.94728 7.29236 4.40598C8.27247 4 9.51498 4 12 4C14.485 4 15.7275 4 16.7076 4.40598C18.0145 4.94728 19.0527 5.98554 19.594 7.29236ZM12.0001 8.33354C12.5524 8.33354 13.0001 8.78125 13.0001 9.33354V10.9998H14.6668C15.219 10.9998 15.6668 11.4475 15.6668 11.9998C15.6668 12.5521 15.219 12.9998 14.6668 12.9998H13.0001V14.6669C13.0001 15.2192 12.5524 15.6669 12.0001 15.6669C11.4479 15.6669 11.0001 15.2192 11.0001 14.6669V12.9998H9.33343C8.78115 12.9998 8.33343 12.5521 8.33343 11.9998C8.33343 11.4475 8.78115 10.9998 9.33343 10.9998H11.0001V9.33354C11.0001 8.78125 11.4479 8.33354 12.0001 8.33354Z" fill="#DAFFFB"/>
</g>
</svg>
