<svg width="40" height="40" viewBox="0 0 40 40" fill="none" xmlns="http://www.w3.org/2000/svg">
<g id="Setting_fill">
<circle id="Ellipse 7" cx="20" cy="20" r="20" fill="#176B87"/>
<path id="Subtract" fill-rule="evenodd" clip-rule="evenodd" d="M22.2173 8.71893C22.3946 8.94662 22.4271 9.27161 22.4921 9.9216C22.6155 11.156 22.6772 11.7732 23.0257 12.0366C23.1619 12.1396 23.3221 12.206 23.4912 12.2295C23.9239 12.2896 24.404 11.8968 25.3641 11.1112C25.8697 10.6976 26.1224 10.4908 26.4088 10.4551C26.524 10.4408 26.6408 10.4466 26.754 10.4723C27.0354 10.5363 27.2664 10.7673 27.7283 11.2292L28.7706 12.2715C29.2325 12.7334 29.4635 12.9644 29.5275 13.2458C29.5532 13.359 29.559 13.4758 29.5447 13.591C29.509 13.8773 29.3022 14.1301 28.8885 14.6357C28.103 15.5958 27.7102 16.0759 27.7703 16.5086C27.7938 16.6777 27.8602 16.8379 27.9631 16.9741C28.2266 17.3226 28.8438 17.3843 30.0782 17.5077C30.7282 17.5727 31.0532 17.6052 31.2809 17.7825C31.3725 17.8538 31.451 17.9406 31.5128 18.0388C31.6666 18.283 31.6666 18.6096 31.6666 19.2629V20.7371C31.6666 21.3902 31.6666 21.7168 31.5129 21.9609C31.451 22.0592 31.3725 22.146 31.2808 22.2174C31.0532 22.3946 30.7282 22.4271 30.0783 22.4921C28.8442 22.6155 28.2272 22.6772 27.9637 23.0255C27.8606 23.1618 27.7942 23.3222 27.7707 23.4914C27.7107 23.924 28.1034 24.4039 28.8887 25.3638C29.3023 25.8692 29.509 26.1219 29.5447 26.4082C29.5591 26.5235 29.5532 26.6404 29.5275 26.7537C29.4635 27.035 29.2326 27.2659 28.7708 27.7276L27.7283 28.7702C27.2664 29.2321 27.0355 29.463 26.7541 29.527C26.6409 29.5527 26.524 29.5585 26.4088 29.5442C26.1225 29.5085 25.8697 29.3017 25.3642 28.8881C24.404 28.1025 23.924 27.7098 23.4913 27.7699C23.3222 27.7934 23.1619 27.8597 23.0258 27.9627C22.6773 28.2262 22.6156 28.8434 22.4921 30.078C22.4271 30.7282 22.3946 31.0533 22.2172 31.281C22.146 31.3725 22.0593 31.451 21.9611 31.5128C21.7169 31.6666 21.3902 31.6666 20.7368 31.6666H19.2629C18.6096 31.6666 18.283 31.6666 18.0388 31.5128C17.9406 31.451 17.8538 31.3725 17.7825 31.2809C17.6052 31.0532 17.5727 30.7282 17.5077 30.0782C17.3843 28.8438 17.3226 28.2266 16.9741 27.9631C16.8379 27.8602 16.6777 27.7938 16.5086 27.7703C16.0759 27.7102 15.5958 28.103 14.6357 28.8886C14.1301 29.3022 13.8773 29.5091 13.5909 29.5447C13.4757 29.5591 13.3589 29.5532 13.2457 29.5275C12.9643 29.4635 12.7334 29.2326 12.2715 28.7707L11.2291 27.7283C10.7672 27.2664 10.5362 27.0355 10.4723 26.7541C10.4465 26.6409 10.4407 26.5241 10.4551 26.4089C10.4907 26.1225 10.6975 25.8697 11.1112 25.3641C11.8968 24.404 12.2895 23.9239 12.2294 23.4912C12.206 23.3221 12.1396 23.1619 12.0366 23.0257C11.7732 22.6772 11.156 22.6155 9.9216 22.4921H9.92159C9.27161 22.4271 8.94662 22.3946 8.71893 22.2173C8.62732 22.146 8.54884 22.0593 8.48698 21.961C8.33325 21.7168 8.33325 21.3902 8.33325 20.737V19.263C8.33325 18.6096 8.33325 18.2829 8.48705 18.0387C8.54887 17.9405 8.6273 17.8539 8.71884 17.7826C8.94656 17.6053 9.27162 17.5727 9.92173 17.5077C11.1564 17.3843 11.7737 17.3225 12.0372 16.9739C12.14 16.8378 12.2064 16.6777 12.2299 16.5087C12.29 16.0759 11.8972 15.5957 11.1114 14.6354C10.6976 14.1296 10.4907 13.8767 10.4551 13.5903C10.4408 13.4752 10.4466 13.3585 10.4723 13.2454C10.5362 12.9639 10.7673 12.7329 11.2293 12.2709L11.2293 12.2709L12.2715 11.2286L12.2715 11.2286C12.7334 10.7667 12.9644 10.5358 13.2458 10.4718C13.359 10.4461 13.4758 10.4403 13.591 10.4546C13.8773 10.4902 14.1302 10.6971 14.6358 11.1108C15.5958 11.8963 16.0759 12.289 16.5085 12.229C16.6777 12.2055 16.8381 12.1391 16.9743 12.0361C17.3226 11.7726 17.3844 11.1555 17.5078 9.92144C17.5727 9.2716 17.6052 8.94668 17.7824 8.71902C17.8538 8.62735 17.9406 8.5488 18.0389 8.48692C18.2831 8.33325 18.6096 8.33325 19.2627 8.33325H20.737C21.3902 8.33325 21.7168 8.33325 21.961 8.48699C22.0593 8.54884 22.146 8.62732 22.2173 8.71893ZM19.9999 24.6666C22.5772 24.6666 24.6666 22.5772 24.6666 19.9999C24.6666 17.4226 22.5772 15.3333 19.9999 15.3333C17.4226 15.3333 15.3332 17.4226 15.3332 19.9999C15.3332 22.5772 17.4226 24.6666 19.9999 24.6666Z" fill="#DAFFFB"/>
</g>
</svg>
