<svg width="28" height="28" viewBox="0 0 28 28" fill="none" xmlns="http://www.w3.org/2000/svg">
<g id="Bell_pin">
<path id="Subtract" fill-rule="evenodd" clip-rule="evenodd" d="M17.2296 3.22797C16.248 2.76035 15.1517 2.5 14.0001 2.5C10.1696 2.5 6.95167 5.38018 6.52867 9.18722L6.2349 11.8311C6.19834 12.1602 6.18285 12.298 6.16251 12.4319C6.03971 13.2408 5.77605 14.0219 5.38351 14.7397C5.31851 14.8586 5.24733 14.9776 5.07701 15.2615L4.40263 16.3854L4.36769 16.4436C4.02149 17.0205 3.7088 17.5415 3.5223 17.9808C3.3283 18.4378 3.15668 19.0619 3.46413 19.7007C3.50266 19.7808 3.54648 19.8582 3.5953 19.9324C3.98487 20.5247 4.6084 20.6986 5.10003 20.7674C5.57267 20.8335 6.18032 20.8334 6.85307 20.8333L6.921 20.8333H21.0791L21.1471 20.8333C21.8198 20.8334 22.4275 20.8335 22.9001 20.7674C23.3917 20.6986 24.0153 20.5247 24.4048 19.9324C24.4537 19.8582 24.4975 19.7808 24.536 19.7007C24.8435 19.0619 24.6718 18.4378 24.4778 17.9808C24.2913 17.5415 23.9786 17.0205 23.6325 16.4437L23.5975 16.3854L22.9231 15.2615C22.7528 14.9776 22.6816 14.8586 22.6166 14.7397C22.2241 14.0219 21.9604 13.2408 21.8376 12.4319C21.8301 12.3821 21.8232 12.3318 21.8156 12.2714C21.5497 12.3122 21.2774 12.3333 21.0001 12.3333C20.5851 12.3333 20.1812 12.2859 19.7935 12.1963C19.8192 12.426 19.8371 12.5794 19.8603 12.7321C20.0182 13.7721 20.3572 14.7764 20.8619 15.6993C20.9483 15.8574 21.0411 16.012 21.1966 16.2712L21.1967 16.2714L21.2081 16.2904L21.8825 17.4144C22.275 18.0686 22.5118 18.4679 22.6369 18.7624L22.6457 18.7834L22.6231 18.7867C22.3062 18.831 21.842 18.8333 21.0791 18.8333H6.921C6.15814 18.8333 5.69389 18.831 5.377 18.7867L5.35447 18.7834L5.36326 18.7624C5.4883 18.4679 5.72513 18.0686 6.11762 17.4144L6.79199 16.2904L6.8035 16.2713C6.95901 16.0121 7.05181 15.8574 7.13828 15.6993C7.64298 14.7764 7.98196 13.7721 8.13985 12.7321C8.16691 12.5539 8.18682 12.3746 8.2202 12.0742L8.22266 12.052L8.51643 9.40809C8.8269 6.61391 11.1887 4.5 14.0001 4.5C14.7378 4.5 15.4446 4.64557 16.0915 4.91079C16.3613 4.27766 16.75 3.70737 17.2296 3.22797ZM19.6708 5.08205C19.064 5.50339 18.6667 6.2053 18.6667 7C18.6667 7.02492 18.6671 7.04975 18.6679 7.07449C18.9691 7.55165 19.1997 8.07943 19.3443 8.64406C19.767 9.06975 20.3528 9.33333 21.0001 9.33333C21.1653 9.33333 21.3266 9.31615 21.4822 9.28347L21.4715 9.18722C21.2968 7.61486 20.6453 6.20059 19.6708 5.08205ZM22.7042 18.9646C22.7041 18.9645 22.7038 18.9628 22.7037 18.9596C22.7042 18.963 22.7043 18.9646 22.7042 18.9646ZM22.8311 18.7404C22.831 18.7403 22.8294 18.741 22.8265 18.7425C22.828 18.7419 22.8291 18.7414 22.8299 18.741C22.8308 18.7406 22.8312 18.7404 22.8311 18.7404ZM5.169 18.7404C5.1691 18.7403 5.17075 18.741 5.17365 18.7425C5.17036 18.7412 5.16891 18.7404 5.169 18.7404ZM5.29649 18.9595C5.29631 18.9627 5.29604 18.9645 5.29595 18.9646C5.29586 18.9646 5.29595 18.963 5.29649 18.9595Z" fill="#DAFFFB"/>
<path id="Ellipse 45" d="M10.6193 20.6088C10.8187 21.7251 11.2581 22.7116 11.8693 23.4151C12.4806 24.1187 13.2295 24.5 14 24.5C14.7705 24.5 15.5194 24.1187 16.1307 23.4151C16.7419 22.7116 17.1813 21.7251 17.3807 20.6088" stroke="#DAFFFB" stroke-width="2" stroke-linecap="round"/>
<circle id="Ellipse 6" cx="21.0001" cy="7.00008" r="2.83333" fill="#00FFE3" stroke="#00FFE3"/>
</g>
</svg>
