<svg width="22" height="22" viewBox="0 0 22 22" fill="none" xmlns="http://www.w3.org/2000/svg">
<g id="Edit_fill">
<path id="Subtract" fill-rule="evenodd" clip-rule="evenodd" d="M15.8312 9.83515L17.4164 8.24994C17.8061 7.86031 18.0009 7.66549 18.1236 7.46647C18.5206 6.82285 18.5206 6.01037 18.1236 5.36674C18.0009 5.16773 17.8061 4.97291 17.4164 4.58328C17.0268 4.19364 16.832 3.99882 16.633 3.87608C15.9893 3.47913 15.1769 3.47913 14.5332 3.87608C14.3342 3.99882 14.1394 4.19364 13.7498 4.58327L12.1436 6.18943C13.024 7.70483 14.2955 8.96649 15.8312 9.83515ZM10.6891 7.64395L4.52282 13.8102L4.52281 13.8102C4.09775 14.2353 3.88523 14.4478 3.74549 14.7089C3.60576 14.97 3.54681 15.2647 3.42892 15.8542L2.89686 18.5145C2.83034 18.8471 2.79708 19.0134 2.89168 19.108C2.98629 19.2026 3.1526 19.1694 3.48521 19.1029L6.14552 18.5708C6.73497 18.4529 7.0297 18.394 7.2908 18.2542C7.55189 18.1145 7.76442 17.902 8.18948 17.4769L14.373 11.2934C12.8882 10.3602 11.6313 9.11185 10.6891 7.64395Z" fill="#04364A"/>
</g>
</svg>
