<svg xmlns="http://www.w3.org/2000/svg" width="20" height="20" viewBox="0 0 20 20" fill="none">
  <g clip-path="url(#clip0_197_170)">
    <path d="M17.9826 0.122738C17.6663 0.302897 17.4599 0.49548 17.3568 0.72534C17.2743 0.899288 17.2605 2.39647 17.2605 9.99424V19.0519L17.4187 19.3252C17.6525 19.7477 18.0032 19.9651 18.4915 19.9962C18.7115 20.0086 19.0072 19.99 19.1379 19.9527C19.4542 19.8533 19.9218 19.3936 19.9768 19.1264C19.9975 19.0146 20.0043 14.8399 19.9975 9.84512L19.9768 0.77504L19.7843 0.51412C19.6811 0.371233 19.4748 0.197287 19.3235 0.12895C18.9591 -0.0387842 18.2714 -0.0449967 17.9826 0.122738Z" fill="white"/>
    <path d="M0.74956 1.07941C0.58452 1.16017 0.357588 1.34654 0.240684 1.48942L0.0343835 1.75656L0.0137534 9.92584L0 18.1014L0.14441 18.3809C0.41948 18.8841 1.18279 19.1761 1.76043 18.996C2.2418 18.8468 16.2359 11.187 16.5453 10.9074C17.0473 10.4477 17.1092 9.7954 16.7104 9.25492C16.5316 9.00644 15.8439 8.61504 9.40732 5.09884C5.50136 2.96176 2.16616 1.15396 2.00112 1.0732C1.59539 0.893036 1.14153 0.893036 0.74956 1.07941Z" fill="white"/>
  </g>
  <defs>
    <clipPath id="clip0_197_170">
      <rect width="20" height="20" fill="white"/>
    </clipPath>
  </defs>
</svg>