<svg xmlns="http://www.w3.org/2000/svg" width="20" height="20" viewBox="0 0 20 20" fill="none">
  <path d="M3.75 0C4.74456 0 5.69839 0.35119 6.40165 0.976311C7.10491 1.60143 7.5 2.44928 7.5 3.33333V16.6667C7.5 17.5507 7.10491 18.3986 6.40165 19.0237C5.69839 19.6488 4.74456 20 3.75 20C2.75544 20 1.80161 19.6488 1.09835 19.0237C0.395088 18.3986 2.09588e-08 17.5507 0 16.6667V3.33333C0 2.44928 0.395088 1.60143 1.09835 0.976311C1.80161 0.35119 2.75544 0 3.75 0ZM16.25 0C17.2446 0 18.1984 0.35119 18.9017 0.976311C19.6049 1.60143 20 2.44928 20 3.33333V16.6667C20 17.5507 19.6049 18.3986 18.9017 19.0237C18.1984 19.6488 17.2446 20 16.25 20C15.2554 20 14.3016 19.6488 13.5983 19.0237C12.8951 18.3986 12.5 17.5507 12.5 16.6667V3.33333C12.5 2.44928 12.8951 1.60143 13.5983 0.976311C14.3016 0.35119 15.2554 0 16.25 0Z" fill="white"/>
</svg>