<svg width="20" height="16" viewBox="0 0 20 16" fill="none" xmlns="http://www.w3.org/2000/svg">
<path id="Vector" fill-rule="evenodd" clip-rule="evenodd" d="M0 3.2C0 2.35131 0.263392 1.53737 0.732233 0.937258C1.20107 0.337142 1.83696 2.2162e-08 2.5 2.2162e-08H11.875C12.4814 -9.12768e-05 13.0671 0.281908 13.5231 0.793485C13.9791 1.30506 14.2743 2.01134 14.3538 2.7808L18.2413 0.5696C18.4315 0.461075 18.64 0.415142 18.8477 0.435977C19.0554 0.456812 19.2557 0.543754 19.4304 0.6889C19.6052 0.834046 19.7488 1.03279 19.8483 1.26708C19.9478 1.50136 19.9999 1.76375 20 2.0304V13.9696C19.9998 14.236 19.9477 14.4982 19.8483 14.7323C19.7488 14.9664 19.6053 15.165 19.4308 15.3101C19.2562 15.4552 19.0561 15.5422 18.8486 15.5632C18.641 15.5842 18.4327 15.5386 18.2425 15.4304L14.3538 13.2192C14.2743 13.9887 13.9791 14.6949 13.5231 15.2065C13.0671 15.7181 12.4814 16.0001 11.875 16H2.5C1.83696 16 1.20107 15.6629 0.732233 15.0627C0.263392 14.4626 0 13.6487 0 12.8V3.2ZM14.375 11.48L18.75 13.9696V2.0304L14.375 4.52V11.48ZM2.5 1.6C2.16848 1.6 1.85054 1.76857 1.61612 2.06863C1.3817 2.36869 1.25 2.77565 1.25 3.2V12.8C1.25 13.2243 1.3817 13.6313 1.61612 13.9314C1.85054 14.2314 2.16848 14.4 2.5 14.4H11.875C12.2065 14.4 12.5245 14.2314 12.7589 13.9314C12.9933 13.6313 13.125 13.2243 13.125 12.8V3.2C13.125 2.77565 12.9933 2.36869 12.7589 2.06863C12.5245 1.76857 12.2065 1.6 11.875 1.6H2.5Z" fill="white"/>
</svg>
