<svg width="20" height="20" viewBox="0 0 20 20" fill="none" xmlns="http://www.w3.org/2000/svg">
<g id="random-off 1">
<path id="Vector" fill-rule="evenodd" clip-rule="evenodd" d="M0 4.6C0 4.44087 0.064835 4.28826 0.180242 4.17574C0.295649 4.06322 0.452175 4 0.615385 4H1.23077C3.94092 4 5.94092 5.488 7.22954 6.9016C7.83262 7.564 8.29415 8.224 8.61539 8.74C8.93539 8.224 9.39815 7.564 10.0012 6.9016C11.2899 5.488 13.2898 4 16 4V5.2C13.7871 5.2 12.0947 6.412 10.9218 7.6984C10.2877 8.3988 9.74294 9.17164 9.29969 10C9.74255 10.8283 10.2869 11.6011 10.9207 12.3016C12.096 13.588 13.7895 14.8 16 14.8V16C13.2898 16 11.2899 14.512 10.0012 13.0984C9.48371 12.5273 9.01989 11.912 8.61539 11.26C8.29539 11.776 7.83262 12.436 7.22954 13.0984C5.94092 14.512 3.94092 16 1.23077 16H0.615385C0.452175 16 0.295649 15.9368 0.180242 15.8242C0.064835 15.7117 0 15.5592 0 15.4C0 15.2408 0.064835 15.0883 0.180242 14.9758C0.295649 14.8632 0.452175 14.8 0.615385 14.8H1.23077C3.44369 14.8 5.136 13.588 6.30892 12.3016C6.94313 11.6012 7.48783 10.8284 7.93108 10C7.48822 9.17171 6.94394 8.39886 6.31015 7.6984C5.13477 6.412 3.44123 5.2 1.23077 5.2H0.615385C0.452175 5.2 0.295649 5.13678 0.180242 5.02426C0.064835 4.91174 0 4.75913 0 4.6Z" fill="#37C097"/>
<path id="Vector_2" d="M16.25 6.83249V1.91749C16.25 1.85811 16.267 1.79996 16.2988 1.74986C16.3307 1.69976 16.3762 1.65978 16.43 1.6346C16.4837 1.60941 16.5436 1.60007 16.6025 1.60767C16.6614 1.61527 16.7169 1.63948 16.7625 1.67749L19.7125 4.13499C19.8625 4.25999 19.8625 4.48999 19.7125 4.61499L16.7625 7.07249C16.7169 7.11049 16.6614 7.13471 16.6025 7.1423C16.5436 7.1499 16.4837 7.14056 16.43 7.11537C16.3762 7.09019 16.3307 7.05021 16.2988 7.00011C16.267 6.95001 16.25 6.89187 16.25 6.83249ZM16.25 18.0825V13.1675C16.25 13.1081 16.267 13.05 16.2988 12.9999C16.3307 12.9498 16.3762 12.9098 16.43 12.8846C16.4837 12.8594 16.5436 12.8501 16.6025 12.8577C16.6614 12.8653 16.7169 12.8895 16.7625 12.9275L19.7125 15.385C19.8625 15.51 19.8625 15.74 19.7125 15.865L16.7625 18.3225C16.7169 18.3605 16.6614 18.3847 16.6025 18.3923C16.5436 18.3999 16.4837 18.3906 16.43 18.3654C16.3762 18.3402 16.3307 18.3002 16.2988 18.2501C16.267 18.2 16.25 18.1419 16.25 18.0825Z" fill="#37C097"/>
</g>
</svg>
