<svg xmlns="http://www.w3.org/2000/svg" width="20" height="20" viewBox="0 0 20 20" fill="none">
  <path fill-rule="evenodd" clip-rule="evenodd" d="M0 4.375C0 4.20924 0.065848 4.05027 0.183058 3.93306C0.300269 3.81585 0.45924 3.75 0.625 3.75H1.25C4.0025 3.75 6.03375 5.3 7.3425 6.7725C7.955 7.4625 8.42375 8.15 8.75 8.6875C9.075 8.15 9.545 7.4625 10.1575 6.7725C11.4663 5.3 13.4975 3.75 16.25 3.75V5C14.0025 5 12.2837 6.2625 11.0925 7.6025C10.4484 8.33208 9.89517 9.13713 9.445 10C9.89478 10.8628 10.4476 11.6678 11.0913 12.3975C12.285 13.7375 14.005 15 16.25 15V16.25C13.4975 16.25 11.4663 14.7 10.1575 13.2275C9.63189 12.6326 9.16083 11.9917 8.75 11.3125C8.425 11.85 7.955 12.5375 7.3425 13.2275C6.03375 14.7 4.0025 16.25 1.25 16.25H0.625C0.45924 16.25 0.300269 16.1842 0.183058 16.0669C0.065848 15.9497 0 15.7908 0 15.625C0 15.4592 0.065848 15.3003 0.183058 15.1831C0.300269 15.0658 0.45924 15 0.625 15H1.25C3.4975 15 5.21625 13.7375 6.4075 12.3975C7.05162 11.6679 7.60483 10.8629 8.055 10C7.60522 9.1372 7.05244 8.33215 6.40875 7.6025C5.215 6.2625 3.495 5 1.25 5H0.625C0.45924 5 0.300269 4.93415 0.183058 4.81694C0.065848 4.69973 0 4.54076 0 4.375Z" fill="white"/>
  <path d="M16.25 6.83249V1.91749C16.25 1.85811 16.267 1.79996 16.2988 1.74986C16.3307 1.69976 16.3762 1.65978 16.43 1.6346C16.4837 1.60941 16.5436 1.60007 16.6025 1.60767C16.6614 1.61527 16.7169 1.63948 16.7625 1.67749L19.7125 4.13499C19.8625 4.25999 19.8625 4.48999 19.7125 4.61499L16.7625 7.07249C16.7169 7.11049 16.6614 7.13471 16.6025 7.1423C16.5436 7.1499 16.4837 7.14056 16.43 7.11537C16.3762 7.09019 16.3307 7.05021 16.2988 7.00011C16.267 6.95001 16.25 6.89187 16.25 6.83249ZM16.25 18.0825V13.1675C16.25 13.1081 16.267 13.05 16.2988 12.9999C16.3307 12.9498 16.3762 12.9098 16.43 12.8846C16.4837 12.8594 16.5436 12.8501 16.6025 12.8577C16.6614 12.8653 16.7169 12.8895 16.7625 12.9275L19.7125 15.385C19.8625 15.51 19.8625 15.74 19.7125 15.865L16.7625 18.3225C16.7169 18.3605 16.6614 18.3847 16.6025 18.3923C16.5436 18.3999 16.4837 18.3906 16.43 18.3654C16.3762 18.3402 16.3307 18.3002 16.2988 18.2501C16.267 18.2 16.25 18.1419 16.25 18.0825Z" fill="white"/>
</svg>
