<svg xmlns="http://www.w3.org/2000/svg" width="20" height="20" viewBox="0 0 20 20" fill="none">
  <path d="M13.7494 6.22687V4.04399H6.25064C5.39986 4.04389 4.56313 4.30248 3.81967 4.79528C3.07621 5.28808 2.45061 5.99878 2.0021 6.86011C1.55359 7.72144 1.297 8.70489 1.25663 9.71737C1.21626 10.7298 1.39344 11.7379 1.77139 12.646C1.80799 12.7336 1.82975 12.8289 1.83543 12.9265C1.8411 13.0241 1.83059 13.1221 1.80447 13.2149C1.77836 13.3077 1.73717 13.3934 1.68324 13.4672C1.62932 13.541 1.56372 13.6015 1.49019 13.6451C1.41666 13.6887 1.33665 13.7146 1.25471 13.7214C1.17277 13.7281 1.09052 13.7156 1.01265 13.6845C0.934776 13.6534 0.86281 13.6043 0.800858 13.5401C0.738907 13.4758 0.688183 13.3977 0.651583 13.3101C0.17863 12.1748 -0.043247 10.9145 0.00696671 9.64857C0.0571804 8.3826 0.377823 7.15286 0.938523 6.07583C1.49922 4.99879 2.28142 4.11012 3.21102 3.49398C4.14063 2.87785 5.18686 2.55465 6.25064 2.55499H13.7494V0.372111C13.7494 0.301378 13.7663 0.232117 13.7982 0.172438C13.8301 0.112758 13.8755 0.0651314 13.9293 0.035134C13.9831 0.00513655 14.0429 -0.00598964 14.1018 0.0030583C14.1607 0.0121062 14.2162 0.0409538 14.2618 0.0862228L17.2113 3.0136C17.3613 3.1625 17.3613 3.43648 17.2113 3.58538L14.2618 6.51276C14.2162 6.55803 14.1607 6.58687 14.1018 6.59592C14.0429 6.60497 13.9831 6.59384 13.9293 6.56385C13.8755 6.53385 13.8301 6.48622 13.7982 6.42654C13.7663 6.36686 13.7494 6.2976 13.7494 6.22687ZM18.5111 6.35492C18.6594 6.26715 18.8309 6.25314 18.9879 6.31596C19.145 6.37878 19.2746 6.51329 19.3484 6.68995C19.8214 7.82518 20.0432 9.08546 19.993 10.3514C19.9428 11.6174 19.6222 12.8471 19.0615 13.9242C18.5008 15.0012 17.7186 15.8899 16.789 16.506C15.8594 17.1222 14.8131 17.4454 13.7494 17.445H6.25064V19.6279C6.25061 19.6986 6.23368 19.7679 6.20181 19.8276C6.16994 19.8872 6.12446 19.9349 6.0707 19.9649C6.01693 19.9949 5.9571 20.006 5.89822 19.9969C5.83934 19.9879 5.78384 19.959 5.73822 19.9138L2.78872 16.9864C2.75356 16.9515 2.72527 16.9077 2.70586 16.8583C2.68644 16.8089 2.67638 16.7551 2.67638 16.7005C2.67638 16.646 2.68644 16.5921 2.70586 16.5427C2.72527 16.4933 2.75356 16.4496 2.78872 16.4146L5.73822 13.4872C5.78384 13.442 5.83934 13.4131 5.89822 13.4041C5.9571 13.395 6.01693 13.4062 6.0707 13.4362C6.12446 13.4662 6.16994 13.5138 6.20181 13.5735C6.23368 13.6331 6.25061 13.7024 6.25064 13.7731V15.956H13.7494C14.6003 15.9564 15.4371 15.698 16.1808 15.2053C16.9244 14.7126 17.5502 14.0019 17.9988 13.1405C18.4475 12.2792 18.7042 11.2956 18.7446 10.283C18.785 9.2704 18.6079 8.26226 18.2299 7.35404C18.1562 7.17731 18.1444 6.97295 18.1972 6.78589C18.2499 6.59882 18.3628 6.44286 18.5111 6.35492Z" fill="white"/>
</svg>