<svg width="20" height="18" viewBox="0 0 20 18" fill="none" xmlns="http://www.w3.org/2000/svg">
<path id="Vector" d="M19.6512 9.56278C19.7631 9.51335 19.858 9.43216 19.9242 9.32927C19.9904 9.22639 20.025 9.10635 20.0236 8.98402C20.0222 8.86168 19.985 8.74245 19.9165 8.6411C19.8479 8.53974 19.7512 8.46072 19.6382 8.41384L1.55134 0.904012L1.55045 0.903138L0.989163 0.669074C0.882805 0.624793 0.766277 0.610771 0.652449 0.628559C0.538621 0.646347 0.431926 0.695251 0.344145 0.769871C0.256365 0.844492 0.190919 0.941921 0.155034 1.0514C0.11915 1.16088 0.114227 1.27814 0.140805 1.39025L0.280075 1.98089L0.27922 1.98356L1.96682 9.1887L0.442661 16.4302L0.4427 16.4338L0.316831 17.0274C0.293199 17.14 0.301079 17.2569 0.3396 17.3652C0.378121 17.4736 0.445792 17.5692 0.535163 17.6416C0.624533 17.7139 0.732138 17.7602 0.846134 17.7754C0.96013 17.7905 1.07609 17.7739 1.18127 17.7274L19.6512 9.56278ZM16.3614 9.65046L3.11488 9.80061L3.21806 9.31064C3.23705 9.22078 3.23599 9.12783 3.21498 9.03843L3.10074 8.55091L9.72398 8.47584L16.3472 8.40076L17.8117 9.00909L16.3614 9.65046Z" fill="white"/>
</svg>
