<svg width="20" height="20" viewBox="0 0 20 20" fill="none" xmlns="http://www.w3.org/2000/svg">
<g id="telephone 1" clip-path="url(#clip0_12_2)">
<path id="Vector" d="M4.5676 1.66008C4.49381 1.56516 4.40066 1.48702 4.29435 1.43086C4.18804 1.3747 4.071 1.3418 3.951 1.33436C3.831 1.32691 3.71078 1.34508 3.59835 1.38766C3.48591 1.43024 3.38381 1.49626 3.29885 1.58133L2.00635 2.87508C1.4026 3.48008 1.1801 4.33633 1.44385 5.08758C2.53976 8.19646 4.32029 11.0193 6.65385 13.3476C8.98209 15.6811 11.805 17.4617 14.9139 18.5576C15.6651 18.8213 16.5214 18.5988 17.1264 17.9951L18.4188 16.7026C18.5039 16.6176 18.5699 16.5155 18.6125 16.4031C18.6551 16.2906 18.6733 16.1704 18.6658 16.0504C18.6584 15.9304 18.6255 15.8134 18.5693 15.7071C18.5132 15.6008 18.435 15.5076 18.3401 15.4338L15.4564 13.1913C15.3549 13.1128 15.2369 13.0583 15.1113 13.0319C14.9858 13.0055 14.8559 13.0079 14.7314 13.0388L11.9939 13.7226C11.6284 13.8133 11.2458 13.8081 10.8829 13.7076C10.52 13.6071 10.1893 13.4146 9.9226 13.1488L6.8526 10.0776C6.58658 9.81103 6.39387 9.48032 6.29314 9.11745C6.1924 8.75459 6.18705 8.37187 6.2776 8.00633L6.9626 5.26883C6.99355 5.14431 6.99591 5.0144 6.9695 4.88884C6.94308 4.76328 6.88859 4.64533 6.8101 4.54383L4.5676 1.66008ZM2.3551 0.638829C2.57384 0.420016 2.83664 0.250242 3.12602 0.14078C3.41541 0.0313189 3.72478 -0.0153252 4.03358 0.00394513C4.34238 0.0232155 4.64354 0.107959 4.91708 0.25255C5.19061 0.39714 5.43026 0.598268 5.6201 0.842579L7.8626 3.72508C8.27385 4.25383 8.41885 4.94258 8.25635 5.59258L7.5726 8.33008C7.5375 8.47188 7.53953 8.62033 7.5785 8.76112C7.61747 8.9019 7.69207 9.03027 7.7951 9.13383L10.8664 12.2051C10.97 12.3083 11.0986 12.383 11.2396 12.422C11.3807 12.461 11.5294 12.4629 11.6714 12.4276L14.4076 11.7438C14.7284 11.6641 15.0631 11.6581 15.3866 11.7263C15.71 11.7945 16.0138 11.9351 16.2751 12.1376L19.1576 14.3801C20.1939 15.1863 20.2889 16.7176 19.3614 17.6438L18.0689 18.9363C17.1439 19.8613 15.7614 20.2676 14.4726 19.8138C11.1734 18.6546 8.17827 16.766 5.7101 14.2888C3.23307 11.821 1.34454 8.82629 0.1851 5.52758C-0.2674 4.24008 0.13885 2.85633 1.06385 1.93133L2.3551 0.638829Z" fill="white"/>
</g>
<defs>
<clipPath id="clip0_12_2">
<rect width="20" height="20" fill="white"/>
</clipPath>
</defs>
</svg>
