<svg width="54" height="54" viewBox="0 0 54 54" fill="none" xmlns="http://www.w3.org/2000/svg">
<g id="User_cicrle_duotone">
<path id="Rectangle 1" d="M6.75 27C6.75 15.8162 15.8162 6.75 27 6.75C38.1838 6.75 47.25 15.8162 47.25 27C47.25 38.1838 38.1838 47.25 27 47.25C15.8162 47.25 6.75 38.1838 6.75 27Z" fill="#176B87"/>
<circle id="Ellipse 46" cx="27" cy="22.5" r="9" fill="#DAFFFB"/>
<path id="Intersect" fill-rule="evenodd" clip-rule="evenodd" d="M41.1725 41.3536C41.2277 41.4509 41.2096 41.573 41.129 41.6506C37.5767 45.075 32.7601 47.1969 27.4465 47.249C27.3483 47.25 27.2322 47.25 27.0001 47.25C26.768 47.25 26.6519 47.25 26.5538 47.249C21.2402 47.1969 16.4237 45.0751 12.8714 41.6508C12.7909 41.5731 12.7727 41.4511 12.8279 41.3537C15.3816 36.8524 20.7683 33.75 27.0003 33.75C33.2322 33.75 38.6187 36.8524 41.1725 41.3536Z" fill="#DAFFFB"/>
</g>
</svg>
