<svg xmlns="http://www.w3.org/2000/svg" width="20" height="20" viewBox="0 0 20 20" fill="none">
  <path d="M8.39625 4.43754C8.50214 4.48855 8.5915 4.56839 8.65407 4.66789C8.71664 4.76738 8.74989 4.88251 8.75 5.00004V15C8.74983 15.1176 8.71649 15.2328 8.65379 15.3323C8.5911 15.4318 8.50161 15.5116 8.39559 15.5625C8.28958 15.6135 8.17135 15.6334 8.0545 15.6202C7.93764 15.6069 7.8269 15.5609 7.735 15.4875L4.78125 13.125H1.875C1.70924 13.125 1.55027 13.0592 1.43306 12.942C1.31585 12.8248 1.25 12.6658 1.25 12.5V7.50004C1.25 7.33428 1.31585 7.17531 1.43306 7.0581C1.55027 6.94089 1.70924 6.87504 1.875 6.87504H4.78125L7.735 4.51254C7.82697 4.43903 7.93783 4.39298 8.05481 4.37971C8.1718 4.36645 8.29016 4.38649 8.39625 4.43754ZM17.3175 7.05754C17.3757 7.1156 17.4219 7.18457 17.4534 7.2605C17.4849 7.33643 17.5011 7.41783 17.5011 7.50004C17.5011 7.58225 17.4849 7.66365 17.4534 7.73958C17.4219 7.81552 17.3757 7.88449 17.3175 7.94254L15.2587 10L17.3175 12.0575C17.4349 12.1749 17.5008 12.3341 17.5008 12.5C17.5008 12.666 17.4349 12.8252 17.3175 12.9425C17.2001 13.0599 17.041 13.1258 16.875 13.1258C16.709 13.1258 16.5499 13.0599 16.4325 12.9425L14.375 10.8838L12.3175 12.9425C12.2001 13.0599 12.041 13.1258 11.875 13.1258C11.709 13.1258 11.5499 13.0599 11.4325 12.9425C11.3151 12.8252 11.2492 12.666 11.2492 12.5C11.2492 12.3341 11.3151 12.1749 11.4325 12.0575L13.4913 10L11.4325 7.94254C11.3744 7.88443 11.3283 7.81545 11.2968 7.73952C11.2654 7.6636 11.2492 7.58222 11.2492 7.50004C11.2492 7.41786 11.2654 7.33649 11.2968 7.26056C11.3283 7.18464 11.3744 7.11565 11.4325 7.05754C11.5499 6.94018 11.709 6.87425 11.875 6.87425C11.9572 6.87425 12.0386 6.89044 12.1145 6.92189C12.1904 6.95334 12.2594 6.99943 12.3175 7.05754L14.375 9.11629L16.4325 7.05754C16.4906 6.99934 16.5595 6.95316 16.6355 6.92165C16.7114 6.89014 16.7928 6.87393 16.875 6.87393C16.9572 6.87393 17.0386 6.89014 17.1145 6.92165C17.1905 6.95316 17.2594 6.99934 17.3175 7.05754Z" fill="white"/>
</svg>