<svg width="20" height="20" viewBox="0 0 20 20" fill="none" xmlns="http://www.w3.org/2000/svg">
<path id="Vector" fill-rule="evenodd" clip-rule="evenodd" d="M7.27649 12.7235C7.15892 12.606 6.99948 12.5399 6.83323 12.5399C6.66698 12.5399 6.50754 12.606 6.38997 12.7235L1.25392 17.8596V14.3887C1.25392 14.2224 1.18786 14.063 1.07029 13.9454C0.952709 13.8278 0.793239 13.7618 0.626959 13.7618C0.460679 13.7618 0.30121 13.8278 0.183632 13.9454C0.0660544 14.063 0 14.2224 0 14.3887V19.373C0 19.5393 0.0660544 19.6988 0.183632 19.8164C0.30121 19.9339 0.460679 20 0.626959 20H5.61128C5.77756 20 5.93703 19.9339 6.05461 19.8164C6.17219 19.6988 6.23824 19.5393 6.23824 19.373C6.23824 19.2068 6.17219 19.0473 6.05461 18.9297C5.93703 18.8121 5.77756 18.7461 5.61128 18.7461H2.14044L7.27649 13.61C7.39403 13.4925 7.46005 13.333 7.46005 13.1668C7.46005 13.0005 7.39403 12.8411 7.27649 12.7235ZM12.7235 7.27649C12.8411 7.39403 13.0005 7.46005 13.1668 7.46005C13.333 7.46005 13.4925 7.39403 13.61 7.27649L18.7461 2.14044V5.61128C18.7461 5.77756 18.8121 5.93703 18.9297 6.05461C19.0473 6.17219 19.2068 6.23824 19.373 6.23824C19.5393 6.23824 19.6988 6.17219 19.8164 6.05461C19.9339 5.93703 20 5.77756 20 5.61128V0.626959C20 0.460679 19.9339 0.30121 19.8164 0.183632C19.6988 0.0660544 19.5393 0 19.373 0H14.3887C14.2224 2.47776e-09 14.063 0.0660544 13.9454 0.183632C13.8278 0.30121 13.7618 0.460679 13.7618 0.626959C13.7618 0.793239 13.8278 0.952709 13.9454 1.07029C14.063 1.18786 14.2224 1.25392 14.3887 1.25392H17.8596L12.7235 6.38997C12.606 6.50754 12.5399 6.66698 12.5399 6.83323C12.5399 6.99948 12.606 7.15892 12.7235 7.27649Z" fill="white"/>
</svg>
