<svg width="160" height="75" viewBox="0 0 160 75" fill="none" xmlns="http://www.w3.org/2000/svg">
<g id="Frame" clip-path="url(#clip0_171_116)">
<path id="Vector" d="M87.0689 75C84.4427 75 82.3044 72.8592 82.3044 70.23V4.76999C82.3044 3.50215 81.2768 2.47333 80.0104 2.47333C78.744 2.47333 77.7164 3.50215 77.7164 4.76999V70.23C77.7164 72.8592 75.578 75 72.9519 75C70.3257 75 68.1874 72.8592 68.1874 70.23V22.1352C68.1874 20.8674 67.1597 19.8386 65.8933 19.8386C64.627 19.8386 63.5993 20.8674 63.5993 22.1352V58.9442C63.5993 61.5734 61.461 63.7141 58.8348 63.7141C56.2086 63.7141 54.0703 61.5734 54.0703 58.9442V33.4211C54.0703 32.1532 53.0427 31.1244 51.7763 31.1244C50.5099 31.1244 49.4823 32.1532 49.4823 33.4211V50.2563C49.4823 52.8855 47.344 55.0263 44.7178 55.0263C42.0916 55.0263 39.9533 52.8855 39.9533 50.2563V28.2146C39.9533 26.9468 38.9256 25.918 37.6593 25.918C36.3929 25.918 35.3652 26.9468 35.3652 28.2146V50.2563C35.3652 52.8855 33.2269 55.0263 30.6007 55.0263C27.9746 55.0263 25.8362 52.8855 25.8362 50.2563V48.2922C25.8362 47.0244 24.8086 45.9956 23.5422 45.9956C22.2759 45.9956 21.2482 47.0244 21.2482 48.2922C21.2482 50.9214 19.1099 53.0622 16.4837 53.0622H1.23524C0.550149 53.0726 0 52.5114 0 51.8359C0 51.1605 0.550149 50.5993 1.23524 50.5993H16.4318C17.6982 50.5993 18.7258 49.5705 18.7258 48.3026C18.7258 45.6734 20.8641 43.5326 23.4903 43.5326C26.1165 43.5326 28.2548 45.6734 28.2548 48.3026V50.2667C28.2548 51.5346 29.2825 52.5634 30.5488 52.5634C31.8152 52.5634 32.8429 51.5346 32.8429 50.2667V28.2146C32.8429 25.5854 34.9812 23.4446 37.6074 23.4446C40.2335 23.4446 42.3719 25.5854 42.3719 28.2146V50.2563C42.3719 51.5242 43.3995 52.553 44.6659 52.553C45.9323 52.553 46.9599 51.5242 46.9599 50.2563V33.4211C46.9599 30.7919 49.0982 28.6511 51.7244 28.6511C54.3506 28.6511 56.4889 30.7919 56.4889 33.4211V58.9442C56.4889 60.212 57.5165 61.2408 58.7829 61.2408C60.0493 61.2408 61.0769 60.212 61.0769 58.9442V22.1352C61.0769 19.506 63.2153 17.3652 65.8414 17.3652C68.4676 17.3652 70.6059 19.506 70.6059 22.1352V70.23C70.6059 71.4979 71.6336 72.5267 72.9 72.5267C74.1663 72.5267 75.194 71.4979 75.194 70.23V4.76999C75.194 2.14078 77.3323 0 79.9585 0C82.5847 0 84.723 2.14078 84.723 4.76999V70.23C84.723 71.4979 85.7506 72.5267 87.017 72.5267C88.2834 72.5267 89.311 71.4979 89.311 70.23V22.1352C89.311 19.506 91.4493 17.3652 94.0755 17.3652C96.7017 17.3652 98.84 19.506 98.84 22.1352V58.9442C98.84 60.212 99.8676 61.2408 101.134 61.2408C102.4 61.2408 103.428 60.212 103.428 58.9442V33.4211C103.428 30.7919 105.566 28.6511 108.193 28.6511C110.819 28.6511 112.957 30.7919 112.957 33.4211V50.2563C112.957 51.5242 113.985 52.553 115.251 52.553C116.517 52.553 117.545 51.5242 117.545 50.2563V28.2146C117.545 25.5854 119.683 23.4446 122.31 23.4446C124.936 23.4446 127.074 25.5854 127.074 28.2146V50.2563C127.074 51.5242 128.102 52.553 129.368 52.553C130.634 52.553 131.662 51.5242 131.662 50.2563V48.2922C131.662 45.663 133.8 43.5222 136.427 43.5222C139.053 43.5222 141.191 45.663 141.191 48.2922C141.191 49.5601 142.219 50.5889 143.485 50.5889H158.682C159.367 50.5889 159.917 51.1397 159.917 51.8256C159.917 52.5114 159.367 53.0622 158.682 53.0622H143.485C140.859 53.0622 138.721 50.9214 138.721 48.2922C138.721 47.0244 137.693 45.9956 136.427 45.9956C135.16 45.9956 134.133 47.0244 134.133 48.2922V50.2563C134.133 52.8855 131.994 55.0263 129.368 55.0263C126.742 55.0263 124.604 52.8855 124.604 50.2563V28.2146C124.604 26.9468 123.576 25.918 122.31 25.918C121.043 25.918 120.016 26.9468 120.016 28.2146V50.2563C120.016 52.8855 117.877 55.0263 115.251 55.0263C112.625 55.0263 110.487 52.8855 110.487 50.2563V33.4211C110.487 32.1532 109.459 31.1244 108.193 31.1244C106.926 31.1244 105.899 32.1532 105.899 33.4211V58.9442C105.899 61.5734 103.76 63.7141 101.134 63.7141C98.5078 63.7141 96.3695 61.5734 96.3695 58.9442V22.1352C96.3695 20.8674 95.3419 19.8386 94.0755 19.8386C92.8091 19.8386 91.7815 20.8674 91.7815 22.1352V70.23C91.8334 72.8592 89.6951 75 87.0689 75Z" fill="#DAFFFB"/>
</g>
<defs>
<clipPath id="clip0_171_116">
<rect width="160" height="75" fill="white"/>
</clipPath>
</defs>
</svg>
