<svg width="40" height="40" viewBox="0 0 40 40" fill="none" xmlns="http://www.w3.org/2000/svg">
<g id="settings-btn">
<g id="Group 5">
<path id="Vector" d="M39.9962 19.9981C39.9962 31.042 31.0401 40 20.0038 40C8.95608 40 0 31.0439 0 19.9981C0 8.95991 8.95608 0 20.0038 0C31.042 0 39.9962 8.95991 39.9962 19.9981Z" fill="#176B87"/>
<path id="Vector_2" d="M7.96119 16C5.77195 16 4 17.7701 4 19.9573C4 22.1445 5.76996 23.9156 7.96119 23.9156C10.1464 23.9156 11.9204 22.1475 11.9204 19.9573C11.9204 17.7701 10.1464 16 7.96119 16ZM20.2051 16C18.0209 16 16.244 17.7691 16.244 19.9563C16.244 22.1435 18.0189 23.9146 20.2051 23.9146C22.3914 23.9146 24.1683 22.1465 24.1683 19.9563C24.1663 17.7701 22.3914 16 20.2051 16ZM32.0418 16C29.8536 16 28.0796 17.7701 28.0796 19.9583C28.0796 22.1435 29.8506 23.9146 32.0418 23.9146C34.226 23.9146 36 22.1465 36 19.9583C36 17.7701 34.226 16 32.0418 16Z" fill="#DAFFFB" stroke="#DAFFFB" stroke-width="0.0006401"/>
</g>
</g>
</svg>
