<?xml version="1.0" standalone="no"?>
<!DOCTYPE svg PUBLIC "-//W3C//DTD SVG 20010904//EN"
 "http://www.w3.org/TR/2001/REC-SVG-20010904/DTD/svg10.dtd">
<svg version="1.0" xmlns="http://www.w3.org/2000/svg"
 width="500.000000pt" height="500.000000pt" viewBox="0 0 500.000000 500.000000"
 preserveAspectRatio="xMidYMid meet">

<g transform="translate(0.000000,500.000000) scale(0.100000,-0.100000)"
fill="#000000" stroke="none">
<path d="M3595 3981 c-46 -29 -76 -60 -91 -97 -12 -28 -14 -269 -14 -1492 l0
-1458 23 -44 c34 -68 85 -103 156 -108 32 -2 75 1 94 7 46 16 114 90 122 133
3 18 4 690 3 1494 l-3 1460 -28 42 c-15 23 -45 51 -67 62 -53 27 -153 28 -195
1z"/>
<path d="M1089 3827 c-24 -13 -57 -43 -74 -66 l-30 -43 -3 -1315 -2 -1316 21
-45 c40 -81 151 -128 235 -99 70 24 2105 1257 2150 1302 73 74 82 179 24 266
-26 40 -126 103 -1062 669 -568 344 -1053 635 -1077 648 -59 29 -125 29 -182
-1z"/>
</g>
</svg>
