<svg xmlns="http://www.w3.org/2000/svg" width="20" height="20" viewBox="0 0 20 20" fill="none">
  <g clip-path="url(#clip0_197_166)">
    <path d="M2.01745 19.8773C2.33378 19.6971 2.54008 19.5045 2.64323 19.2747C2.72575 19.1007 2.7395 17.6035 2.7395 10.0058V0.948116L2.58134 0.674772C2.34753 0.252329 1.99682 0.0348953 1.50857 0.00383331C1.28852 -0.00859145 0.992821 0.0100457 0.862165 0.04732C0.545837 0.146718 0.0782222 0.606436 0.0232088 0.873568C0.00257876 0.985392 -0.00429793 5.16012 0.00257876 10.1549L0.0232088 19.225L0.215756 19.4859C0.318907 19.6288 0.525209 19.8027 0.676497 19.871C1.04096 20.0388 1.72863 20.045 2.01745 19.8773Z" fill="white"/>
    <path d="M19.2504 18.9205C19.4154 18.8398 19.6423 18.6534 19.7593 18.5105L19.9655 18.2434L19.9862 10.0741L19.9999 1.89856L19.8555 1.619C19.5805 1.11579 18.8171 0.823811 18.2395 1.00397C17.7581 1.15307 3.76407 8.81295 3.45462 9.09251C2.95263 9.55223 2.89073 10.2045 3.28958 10.745C3.46838 10.9935 4.15603 11.3849 10.5926 14.9011C14.4986 17.0382 17.8338 18.846 17.9988 18.9267C18.4045 19.1069 18.8584 19.1069 19.2504 18.9205Z" fill="white"/>
  </g>
  <defs>
    <clipPath id="clip0_197_166">
      <rect width="20" height="20" fill="white"/>
    </clipPath>
  </defs>
</svg>