<?xml version="1.0" standalone="no"?>
<!DOCTYPE svg PUBLIC "-//W3C//DTD SVG 20010904//EN"
 "http://www.w3.org/TR/2001/REC-SVG-20010904/DTD/svg10.dtd">
<svg version="1.0" xmlns="http://www.w3.org/2000/svg"
 width="500.000000pt" height="500.000000pt" viewBox="0 0 500.000000 500.000000"
 preserveAspectRatio="xMidYMid meet">

<g transform="translate(0.000000,500.000000) scale(0.100000,-0.100000)"
fill="#000000" stroke="none">
<path d="M1225 4207 c-43 -20 -103 -90 -110 -129 -3 -18 -4 -690 -3 -1494 l3
-1460 28 -42 c37 -56 90 -82 169 -82 65 0 98 13 147 60 54 52 51 -25 51 1548
l0 1458 -22 44 c-13 24 -40 57 -61 74 -33 26 -48 31 -105 33 -41 2 -79 -2 -97
-10z"/>
<path d="M3760 4057 c-20 -7 -501 -294 -1070 -637 -688 -415 -1049 -638 -1076
-665 -73 -74 -82 -179 -24 -266 26 -40 126 -103 1062 -669 568 -344 1053 -635
1078 -648 95 -49 215 -10 267 87 l23 44 0 1307 0 1307 -23 44 c-42 79 -156
126 -237 96z"/>
</g>
</svg>
