<svg xmlns="http://www.w3.org/2000/svg" width="20" height="20" viewBox="0 0 20 20" fill="none">
  <path d="M14.42 17.5125C15.4082 16.5271 16.1919 15.3562 16.726 14.0669C17.2601 12.7777 17.5342 11.3956 17.5325 10C17.5342 8.60453 17.2601 7.22243 16.726 5.93318C16.1919 4.64394 15.4082 3.47296 14.42 2.48755L13.535 3.3713C14.4069 4.24079 15.0984 5.27402 15.5697 6.4116C16.041 7.54919 16.2828 8.7687 16.2813 10C16.2813 12.5888 15.2313 14.9325 13.535 16.6288L14.42 17.5125Z" fill="white"/>
  <path d="M12.6512 15.745C13.4068 14.9914 14.006 14.0959 14.4145 13.11C14.8229 12.1241 15.0325 11.0672 15.0312 10C15.0325 8.93284 14.8229 7.87593 14.4145 6.89001C14.006 5.9041 13.4068 5.00861 12.6512 4.255L11.7675 5.13875C12.4068 5.77644 12.9138 6.53418 13.2594 7.36843C13.605 8.20268 13.7823 9.09701 13.7812 10C13.7827 10.9031 13.6056 11.7976 13.2602 12.6321C12.9149 13.4666 12.408 14.2246 11.7687 14.8625L12.6512 15.745Z" fill="white"/>
  <path d="M10.8837 13.9775C11.4069 13.4558 11.8217 12.8358 12.1044 12.1532C12.3872 11.4706 12.5322 10.7389 12.5312 10C12.5322 9.26121 12.3872 8.52948 12.1044 7.84688C11.8217 7.16429 11.4069 6.5443 10.8837 6.02254L10 6.90629C10.4069 7.31213 10.7295 7.79437 10.9494 8.3253C11.1693 8.85623 11.282 9.42538 11.2812 10C11.282 10.5747 11.1692 11.1438 10.9493 11.6747C10.7294 12.2057 10.4068 12.6879 10 13.0938L10.8837 13.9775ZM8.39625 4.43754C8.50214 4.48855 8.5915 4.56839 8.65407 4.66789C8.71664 4.76738 8.74989 4.88251 8.75 5.00004V15C8.74983 15.1176 8.71649 15.2328 8.65379 15.3323C8.5911 15.4318 8.50161 15.5116 8.39559 15.5625C8.28958 15.6135 8.17135 15.6334 8.0545 15.6202C7.93764 15.6069 7.8269 15.5609 7.735 15.4875L4.78125 13.125H1.875C1.70924 13.125 1.55027 13.0592 1.43306 12.942C1.31585 12.8248 1.25 12.6658 1.25 12.5V7.50004C1.25 7.33428 1.31585 7.17531 1.43306 7.0581C1.55027 6.94089 1.70924 6.87504 1.875 6.87504H4.78125L7.735 4.51254C7.82697 4.43903 7.93783 4.39298 8.05481 4.37971C8.1718 4.36645 8.29016 4.38649 8.39625 4.43754Z" fill="white"/>
</svg>