<svg width="40" height="40" viewBox="0 0 40 40" fill="none" xmlns="http://www.w3.org/2000/svg">
<g id="Chat_alt_2_fill">
<circle id="Ellipse 6" cx="20" cy="20" r="20" fill="#176B87"/>
<path id="Subtract" fill-rule="evenodd" clip-rule="evenodd" d="M29.3334 18.8334C29.3334 15.5563 29.3334 13.9178 28.5469 12.7408C28.2065 12.2312 27.769 11.7937 27.2594 11.4532C26.0824 10.6667 24.4438 10.6667 21.1667 10.6667H18.8334C15.5563 10.6667 13.9178 10.6667 12.7408 11.4532C12.2312 11.7937 11.7937 12.2312 11.4532 12.7408C10.6667 13.9178 10.6667 15.5563 10.6667 18.8334C10.6667 22.1105 10.6667 23.749 11.4532 24.9261C11.7937 25.4356 12.2312 25.8731 12.7408 26.2136C13.769 26.9007 15.1494 26.9875 17.6667 26.9985V27.0001L18.9566 29.5798C19.3865 30.4396 20.6136 30.4396 21.0436 29.5798L22.3334 27.0001V26.9985C24.8507 26.9875 26.2312 26.9007 27.2594 26.2136C27.769 25.8731 28.2065 25.4356 28.5469 24.9261C29.3334 23.749 29.3334 22.1105 29.3334 18.8334ZM16.5001 15.7501C16.0859 15.7501 15.7501 16.0859 15.7501 16.5001C15.7501 16.9143 16.0859 17.2501 16.5001 17.2501H23.5001C23.9143 17.2501 24.2501 16.9143 24.2501 16.5001C24.2501 16.0859 23.9143 15.7501 23.5001 15.7501H16.5001ZM16.5001 20.4167C16.0859 20.4167 15.7501 20.7525 15.7501 21.1667C15.7501 21.581 16.0859 21.9167 16.5001 21.9167H20.0001C20.4143 21.9167 20.7501 21.581 20.7501 21.1667C20.7501 20.7525 20.4143 20.4167 20.0001 20.4167H16.5001Z" fill="#DAFFFB"/>
</g>
</svg>
