<svg width="36" height="36" viewBox="0 0 36 36" fill="none" xmlns="http://www.w3.org/2000/svg">
<g id="Avatar">
<path id="Rectangle 1" d="M4.5 18C4.5 10.5442 10.5442 4.5 18 4.5C25.4558 4.5 31.5 10.5442 31.5 18C31.5 25.4558 25.4558 31.5 18 31.5C10.5442 31.5 4.5 25.4558 4.5 18Z" fill="#04364A"/>
<circle id="Ellipse 46" cx="18" cy="15" r="6" fill="#DAFFFB"/>
<path id="Intersect" fill-rule="evenodd" clip-rule="evenodd" d="M27.3802 27.4512C27.4373 27.5482 27.4196 27.6713 27.3383 27.7492C24.9135 30.0725 21.6235 31.5 18.0001 31.5C14.3767 31.5 11.0868 30.0725 8.66188 27.7493C8.58062 27.6715 8.56291 27.5483 8.62 27.4514C10.3489 24.5143 13.9001 22.5 18.0001 22.5C22.1002 22.5 25.6513 24.5142 27.3802 27.4512Z" fill="#DAFFFB"/>
</g>
</svg>
